ffmpeg version 2.8.15-0ubuntu0.16.04.1 Copyright (c) 2000-2018 the FFmpeg developers
  built with gcc 5.4.0 (Ubuntu 5.4.0-6ubuntu1~16.04.10) 20160609
  configuration: --prefix=/usr --extra-version=0ubuntu0.16.04.1 --build-suffix=-ffmpeg --toolchain=hardened --libdir=/usr/lib/x86_64-linux-gnu --incdir=/usr/include/x86_64-linux-gnu --cc=cc --cxx=g++ --enable-gpl --enable-shared --disable-stripping --disable-decoder=libopenjpeg --disable-decoder=libschroedinger --enable-avresample --enable-avisynth --enable-gnutls --enable-ladspa --enable-libass --enable-libbluray --enable-libbs2b --enable-libcaca --enable-libcdio --enable-libflite --enable-libfontconfig --enable-libfreetype --enable-libfribidi --enable-libgme --enable-libgsm --enable-libmodplug --enable-libmp3lame --enable-libopenjpeg --enable-libopus --enable-libpulse --enable-librtmp --enable-libschroedinger --enable-libshine --enable-libsnappy --enable-libsoxr --enable-libspeex --enable-libssh --enable-libtheora --enable-libtwolame --enable-libvorbis --enable-libvpx --enable-libwavpack --enable-libwebp --enable-libx265 --enable-libxvid --enable-libzvbi --enable-openal --enable-opengl --enable-x11grab --enable-libdc1394 --enable-libiec61883 --enable-libzmq --enable-frei0r --enable-libx264 --enable-libopencv
  libavutil      54. 31.100 / 54. 31.100
  libavcodec     56. 60.100 / 56. 60.100
  libavformat    56. 40.101 / 56. 40.101
  libavdevice    56.  4.100 / 56.  4.100
  libavfilter     5. 40.101 /  5. 40.101
  libavresample   2.  1.  0 /  2.  1.  0
  libswscale      3.  1.101 /  3.  1.101
  libswresample   1.  2.101 /  1.  2.101
  libpostproc    53.  3.100 / 53.  3.100
Input #0, image2pipe, from 'pipe:':
  Duration: N/A, bitrate: N/A
    Stream #0:0: Video: ppm, rgb24, 512x512, 12 fps, 12 tbr, 12 tbn, 12 tbc
[libx264 @ 0xd65c00] using cpu capabilities: MMX2 SSE2Fast SSSE3 SSE4.2 AVX
[libx264 @ 0xd65c00] profile High, level 2.2
[libx264 @ 0xd65c00] 264 - core 148 r2643 5c65704 - H.264/MPEG-4 AVC codec - Copyleft 2003-2015 - http://www.videolan.org/x264.html - options: cabac=1 ref=3 deblock=1:0:0 analyse=0x3:0x113 me=hex subme=7 psy=1 psy_rd=1.00:0.00 mixed_ref=1 me_range=16 chroma_me=1 trellis=1 8x8dct=1 cqm=0 deadzone=21,11 fast_pskip=1 chroma_qp_offset=-2 threads=12 lookahead_threads=2 sliced_threads=0 nr=0 decimate=1 interlaced=0 bluray_compat=0 constrained_intra=0 bframes=3 b_pyramid=2 b_adapt=1 b_bias=0 direct=1 weightb=1 open_gop=0 weightp=2 keyint=250 keyint_min=12 scenecut=40 intra_refresh=0 rc_lookahead=40 rc=abr mbtree=1 bitrate=400 ratetol=1.0 qcomp=0.60 qpmin=0 qpmax=69 qpstep=4 ip_ratio=1.40 aq=1:1.00
Output #0, mp4, to './mission_records/aee58f1e-ed70-4d76-a2eb-ebe1af850811/video.mp4':
  Metadata:
    encoder         : Lavf56.40.101
    Stream #0:0: Video: h264 (libx264) ([33][0][0][0] / 0x0021), yuv420p, 512x512, q=-1--1, 400 kb/s, 12 fps, 12288 tbn, 12 tbc
    Metadata:
      encoder         : Lavc56.60.100 libx264
Stream mapping:
  Stream #0:0 -> #0:0 (ppm (native) -> h264 (libx264))
frame=   14 fps=0.0 q=0.0 size=       0kB time=00:00:00.00 bitrate=N/A    frame=   20 fps= 18 q=0.0 size=       0kB time=00:00:00.00 bitrate=N/A    frame=   26 fps= 15 q=0.0 size=       0kB time=00:00:00.00 bitrate=N/A    frame=   32 fps= 14 q=0.0 size=       0kB time=00:00:00.00 bitrate=N/A    frame=   38 fps= 14 q=0.0 size=       0kB time=00:00:00.00 bitrate=N/A    frame=   44 fps= 13 q=0.0 size=       0kB time=00:00:00.00 bitrate=N/A    frame=   50 fps= 13 q=0.0 size=       0kB time=00:00:00.00 bitrate=N/A    frame=   56 fps= 13 q=0.0 size=       0kB time=00:00:00.00 bitrate=N/A    frame=   62 fps= 12 q=27.0 size=      34kB time=00:00:00.33 bitrate= 837.9kbits/s    frame=   68 fps= 12 q=32.0 size=      87kB time=00:00:00.83 bitrate= 854.2kbits/s    frame=   74 fps= 12 q=35.0 size=     125kB time=00:00:01.33 bitrate= 765.9kbits/s    frame=   80 fps= 12 q=37.0 size=     177kB time=00:00:01.83 bitrate= 791.3kbits/s    frame=   86 fps= 12 q=39.0 size=     213kB time=00:00:02.33 bitrate= 748.9kbits/s    frame=   92 fps= 12 q=38.0 size=     226kB time=00:00:02.83 bitrate= 653.7kbits/s    frame=   98 fps= 12 q=36.0 size=     233kB time=00:00:03.33 bitrate= 572.8kbits/s    frame=  104 fps= 12 q=33.0 size=     258kB time=00:00:03.83 bitrate= 551.5kbits/s    frame=  110 fps= 12 q=37.0 size=     283kB time=00:00:04.33 bitrate= 535.0kbits/s    frame=  116 fps= 12 q=37.0 size=     314kB time=00:00:04.83 bitrate= 531.8kbits/s    frame=  122 fps= 12 q=36.0 size=     316kB time=00:00:05.33 bitrate= 485.9kbits/s    frame=  128 fps= 12 q=35.0 size=     327kB time=00:00:05.83 bitrate= 459.3kbits/s    frame=  134 fps= 12 q=34.0 size=     336kB time=00:00:06.33 bitrate= 434.5kbits/s    frame=  140 fps= 12 q=34.0 size=     349kB time=00:00:06.83 bitrate= 418.8kbits/s    frame=  146 fps= 12 q=34.0 size=     378kB time=00:00:07.33 bitrate= 422.5kbits/s    frame=  152 fps= 11 q=34.0 size=     402kB time=00:00:07.83 bitrate= 420.3kbits/s    frame=  158 fps= 11 q=33.0 size=     415kB time=00:00:08.33 bitrate= 408.1kbits/s    frame=  164 fps= 11 q=33.0 size=     435kB time=00:00:08.83 bitrate= 403.0kbits/s    frame=  170 fps= 11 q=31.0 size=     454kB time=00:00:09.33 bitrate= 398.3kbits/s    frame=  176 fps= 11 q=34.0 size=     496kB time=00:00:09.83 bitrate= 413.2kbits/s    frame=  182 fps= 11 q=34.0 size=     530kB time=00:00:10.33 bitrate= 420.4kbits/s    frame=  188 fps= 11 q=34.0 size=     567kB time=00:00:10.83 bitrate= 429.0kbits/s    frame=  194 fps= 11 q=35.0 size=     612kB time=00:00:11.33 bitrate= 442.1kbits/s    frame=  200 fps= 11 q=35.0 size=     640kB time=00:00:11.83 bitrate= 442.9kbits/s    frame=  206 fps= 11 q=35.0 size=     664kB time=00:00:12.33 bitrate= 440.9kbits/s    frame=  212 fps= 11 q=35.0 size=     693kB time=00:00:12.83 bitrate= 442.2kbits/s    frame=  218 fps= 11 q=36.0 size=     723kB time=00:00:13.33 bitrate= 444.2kbits/s    frame=  224 fps= 11 q=36.0 size=     758kB time=00:00:13.83 bitrate= 448.7kbits/s    frame=  230 fps= 11 q=36.0 size=     774kB time=00:00:14.33 bitrate= 442.2kbits/s    frame=  236 fps= 11 q=35.0 size=     780kB time=00:00:14.83 bitrate= 431.0kbits/s    frame=  242 fps= 11 q=35.0 size=     812kB time=00:00:15.33 bitrate= 434.1kbits/s    frame=  248 fps= 11 q=36.0 size=     849kB time=00:00:15.83 bitrate= 439.0kbits/s    frame=  254 fps= 11 q=36.0 size=     875kB time=00:00:16.33 bitrate= 438.7kbits/s    frame=  260 fps= 11 q=36.0 size=     892kB time=00:00:16.83 bitrate= 434.2kbits/s    frame=  266 fps= 11 q=33.0 size=     913kB time=00:00:17.33 bitrate= 431.3kbits/s    frame=  272 fps= 11 q=36.0 size=     943kB time=00:00:17.83 bitrate= 433.3kbits/s    frame=  278 fps= 11 q=36.0 size=     976kB time=00:00:18.33 bitrate= 435.9kbits/s    frame=  284 fps= 11 q=36.0 size=    1013kB time=00:00:18.83 bitrate= 440.5kbits/s    frame=  290 fps= 11 q=36.0 size=    1044kB time=00:00:19.33 bitrate= 442.4kbits/s    frame=  296 fps= 11 q=36.0 size=    1070kB time=00:00:19.83 bitrate= 442.1kbits/s    frame=  302 fps= 11 q=36.0 size=    1084kB time=00:00:20.33 bitrate= 436.6kbits/s    frame=  308 fps= 11 q=36.0 size=    1111kB time=00:00:20.83 bitrate= 436.7kbits/s    frame=  314 fps= 11 q=36.0 size=    1142kB time=00:00:21.33 bitrate= 438.6kbits/s    frame=  320 fps= 11 q=37.0 size=    1173kB time=00:00:21.83 bitrate= 440.1kbits/s    frame=  326 fps= 11 q=37.0 size=    1197kB time=00:00:22.33 bitrate= 439.0kbits/s    frame=  332 fps= 11 q=36.0 size=    1215kB time=00:00:22.83 bitrate= 436.0kbits/s    frame=  338 fps= 11 q=36.0 size=    1234kB time=00:00:23.33 bitrate= 433.1kbits/s    frame=  344 fps= 11 q=36.0 size=    1241kB time=00:00:23.83 bitrate= 426.6kbits/s    frame=  350 fps= 11 q=36.0 size=    1270kB time=00:00:24.33 bitrate= 427.6kbits/s    frame=  356 fps= 11 q=36.0 size=    1304kB time=00:00:24.83 bitrate= 430.2kbits/s    frame=  362 fps= 11 q=36.0 size=    1325kB time=00:00:25.33 bitrate= 428.4kbits/s    frame=  368 fps= 11 q=36.0 size=    1332kB time=00:00:25.83 bitrate= 422.4kbits/s    frame=  374 fps= 11 q=35.0 size=    1340kB time=00:00:26.33 bitrate= 416.8kbits/s    frame=  380 fps= 11 q=33.0 size=    1353kB time=00:00:26.83 bitrate= 412.9kbits/s    av_interleaved_write_frame(): Immediate exit requested
frame=  381 fps= 11 q=35.0 Lsize=    1459kB time=00:00:29.50 bitrate= 405.2kbits/s    
video:1461kB audio:0kB subtitle:0kB other streams:0kB global headers:0kB muxing overhead: unknown
[libx264 @ 0xd65c00] frame I:37    Avg QP:29.69  size:  8963
[libx264 @ 0xd65c00] frame P:322   Avg QP:32.36  size:  3861
[libx264 @ 0xd65c00] frame B:22    Avg QP:34.09  size:  1133
[libx264 @ 0xd65c00] consecutive B-frames: 90.0%  6.3%  1.6%  2.1%
[libx264 @ 0xd65c00] mb I  I16..4:  9.6% 59.6% 30.8%
[libx264 @ 0xd65c00] mb P  I16..4:  8.3% 40.2%  7.0%  P16..4: 23.9%  7.4%  2.2%  0.0%  0.0%    skip:10.9%
[libx264 @ 0xd65c00] mb B  I16..4:  0.6%  1.6%  0.6%  B16..8: 23.5%  4.6%  0.5%  direct: 0.7%  skip:67.9%  L0:53.6% L1:45.5% BI: 0.9%
[libx264 @ 0xd65c00] final ratefactor: 31.58
[libx264 @ 0xd65c00] 8x8 transform intra:70.2% inter:77.7%
[libx264 @ 0xd65c00] coded y,uvDC,uvAC intra: 32.3% 33.8% 9.0% inter: 16.7% 7.8% 0.5%
[libx264 @ 0xd65c00] i16 v,h,dc,p: 37% 40% 15%  7%
[libx264 @ 0xd65c00] i8 v,h,dc,ddl,ddr,vr,hd,vl,hu: 34% 16% 25%  4%  4%  4%  6%  3%  4%
[libx264 @ 0xd65c00] i4 v,h,dc,ddl,ddr,vr,hd,vl,hu: 36% 23% 18%  4%  4%  4%  5%  3%  3%
[libx264 @ 0xd65c00] i8c dc,h,v,p: 71% 14% 14%  1%
[libx264 @ 0xd65c00] Weighted P-Frames: Y:6.5% UV:5.0%
[libx264 @ 0xd65c00] ref P L0: 69.7% 11.8% 12.6%  5.9%  0.1%
[libx264 @ 0xd65c00] ref B L0: 92.3%  7.7%
[libx264 @ 0xd65c00] ref B L1: 99.3%  0.7%
[libx264 @ 0xd65c00] kb/s:403.10
Exiting normally, received signal 2.
